<?xml version="1.0" standalone="no"?>
<!DOCTYPE svg PUBLIC "-//W3C//DTD SVG 20010904//EN"
 "http://www.w3.org/TR/2001/REC-SVG-20010904/DTD/svg10.dtd">
<svg version="1.0" xmlns="http://www.w3.org/2000/svg"
 width="526.000000pt" height="474.000000pt" viewBox="0 0 526.000000 474.000000"
 preserveAspectRatio="xMidYMid meet">
<metadata>
Created by potrace 1.16, written by Peter Selinger 2001-2019
</metadata>
<g transform="translate(0.000000,474.000000) scale(0.100000,-0.100000)"
fill="#000000" stroke="none">
<path d="M0 2370 l0 -2370 2630 0 2630 0 0 2370 0 2370 -2630 0 -2630 0 0
-2370z m2875 1254 c50 -8 106 -20 125 -26 275 -85 425 -174 605 -360 132 -135
205 -250 269 -421 58 -155 71 -229 71 -417 0 -181 -10 -253 -54 -387 -36 -108
-46 -131 -94 -213 -165 -287 -438 -506 -742 -596 -152 -45 -255 -57 -435 -51
-271 9 -470 69 -669 200 -94 63 -110 76 -202 167 -170 169 -250 296 -314 498
-47 149 -55 200 -55 362 0 221 14 293 97 500 79 195 262 409 468 547 68 46
195 117 195 109 0 -3 24 6 54 19 49 22 111 41 161 51 242 47 329 50 520 18z"/>
<path d="M2750 3470 c-14 -25 -18 -960 -5 -1019 8 -35 18 -51 77 -110 21 -21
34 -41 30 -45 -4 -4 -2 -6 3 -4 16 5 208 -189 199 -203 -4 -8 -3 -9 5 -5 7 5
32 -13 64 -44 29 -29 62 -59 74 -67 36 -24 45 -17 284 223 25 26 180 181 190
190 74 73 119 126 119 141 0 49 -33 195 -54 239 -12 27 -31 72 -42 99 -10 28
-23 55 -29 61 -5 6 -17 22 -25 34 -8 12 -27 40 -42 61 -16 21 -28 41 -28 45 0
11 -178 179 -205 194 -16 8 -40 25 -54 38 -14 13 -44 33 -66 44 -22 11 -58 29
-80 41 -52 27 -134 56 -160 57 -12 0 -25 4 -30 9 -9 8 -81 24 -177 38 -30 4
-38 1 -48 -17z"/>
<path d="M2385 3462 c-16 -2 -34 -8 -39 -13 -6 -5 -19 -9 -31 -9 -35 0 -201
-75 -282 -127 -31 -20 -36 -23 -78 -58 -16 -14 -33 -25 -36 -25 -10 0 -149
-140 -149 -150 0 -4 -11 -20 -25 -36 -14 -16 -29 -34 -33 -40 -19 -27 -33 -50
-39 -64 -4 -8 -10 -17 -13 -20 -17 -12 -79 -161 -91 -215 -7 -33 -16 -64 -21
-69 -13 -16 -9 -46 6 -46 20 0 63 37 197 168 64 63 123 118 130 123 8 5 11 9
8 9 -3 0 51 55 120 123 69 67 128 125 131 129 3 4 65 68 138 142 73 75 130
136 127 136 -3 0 -1 9 5 21 14 25 13 25 -25 21z"/>
<path d="M2053 2867 l-523 -522 1 -45 c1 -107 47 -284 98 -380 46 -88 80 -141
108 -170 18 -19 33 -38 33 -43 0 -11 159 -167 170 -167 5 0 13 -6 17 -14 4 -7
27 -23 51 -35 24 -12 52 -31 62 -41 11 -11 31 -22 45 -26 14 -3 28 -10 31 -15
3 -5 14 -9 25 -9 10 0 19 -4 19 -10 0 -5 8 -10 18 -10 9 -1 35 -9 57 -20 22
-11 50 -19 63 -20 12 0 22 -4 22 -9 0 -9 151 -31 213 -31 37 0 37 0 37 41 0
28 4 38 12 33 13 -8 4 881 -11 953 -4 23 -17 55 -27 70 -10 15 -17 31 -16 35
1 5 -4 7 -11 5 -6 -1 -11 4 -10 11 2 6 -2 12 -7 12 -6 0 -32 21 -58 47 -26 26
-38 41 -27 33 11 -7 1 4 -22 26 -33 31 -43 48 -43 72 0 27 4 33 32 40 32 8 73
-5 105 -32 39 -35 40 -35 62 -20 12 9 21 27 22 42 0 24 1 25 9 7 11 -24 6 570
-5 630 -4 22 -14 47 -21 56 -8 9 -11 19 -7 22 3 4 4 7 2 7 -2 0 -239 -235
-526 -523z"/>
<path d="M3781 2282 c0 -7 -6 -10 -11 -7 -16 10 -398 -367 -413 -408 -12 -31
-1 -60 34 -95 19 -19 28 -35 24 -43 -5 -7 -4 -10 2 -6 6 4 28 -7 48 -23 21
-17 40 -30 42 -30 14 0 63 36 63 46 0 6 14 30 30 52 17 23 30 46 30 51 0 5 7
11 15 15 8 3 15 12 15 21 0 8 4 15 9 15 6 0 18 25 27 55 10 30 21 55 25 55 4
0 10 17 14 37 4 21 11 40 15 43 11 7 43 193 37 217 -3 10 -5 12 -6 5z"/>
<path d="M2746 2148 c-16 -97 -24 -342 -15 -467 6 -75 13 -143 16 -151 3 -8 6
-18 5 -22 -3 -14 51 1 60 16 5 9 46 53 91 97 45 43 87 84 92 90 6 5 32 32 60
60 53 54 65 94 33 117 -10 7 -16 18 -13 23 4 5 0 9 -8 9 -12 0 -50 35 -55 53
-1 4 -4 7 -7 7 -11 1 -72 66 -68 73 2 4 1 6 -4 5 -5 -2 -26 15 -48 37 -22 21
-34 35 -26 31 10 -7 12 -5 7 3 -5 7 -10 10 -13 7 -3 -3 -19 6 -35 19 -42 35
-66 33 -72 -7z"/>
<path d="M3013 1538 c-100 -101 -182 -190 -183 -199 0 -8 -6 -21 -12 -28 -11
-11 -10 -13 0 -7 6 4 42 9 79 10 38 2 69 9 71 15 2 6 13 11 25 11 12 1 40 9
62 20 22 11 48 19 58 20 9 0 17 5 17 10 0 6 9 10 19 10 23 0 83 30 94 48 4 6
15 12 22 12 8 0 15 4 15 9 0 5 18 16 40 25 22 9 40 20 40 25 0 5 9 12 19 16
11 3 22 13 25 21 3 8 1 12 -4 9 -5 -3 -12 6 -16 20 -3 13 -10 22 -15 19 -5 -3
-9 2 -9 10 0 9 -5 16 -11 16 -5 0 -7 5 -3 12 4 7 3 8 -4 4 -6 -4 -19 5 -28 19
-20 30 -63 55 -96 55 -16 0 -75 -52 -205 -182z"/>
</g>
</svg>
